<?xml version="1.0" standalone="no"?>
<!DOCTYPE svg PUBLIC "-//W3C//DTD SVG 20010904//EN"
 "http://www.w3.org/TR/2001/REC-SVG-20010904/DTD/svg10.dtd">
<svg version="1.0" xmlns="http://www.w3.org/2000/svg"
 width="512.000000pt" height="512.000000pt" viewBox="0 0 512.000000 512.000000"
 preserveAspectRatio="xMidYMid meet">
<metadata>
Created by potrace 1.14, written by Peter Selinger 2001-2017
</metadata>
<g transform="translate(0.000000,512.000000) scale(0.100000,-0.100000)"
fill="#000000" stroke="none">
<path d="M4140 4709 c-25 -4 -63 -10 -85 -14 -22 -3 -65 -10 -95 -15 -30 -5
-75 -12 -100 -15 -25 -3 -52 -8 -60 -10 -8 -2 -40 -7 -70 -10 -30 -3 -62 -8
-70 -10 -8 -2 -35 -7 -60 -10 -25 -3 -52 -8 -60 -10 -8 -2 -35 -6 -60 -9 -25
-3 -56 -8 -69 -11 -14 -2 -59 -9 -101 -15 -42 -6 -87 -13 -101 -15 -13 -3 -44
-8 -69 -11 -25 -3 -52 -7 -60 -9 -8 -2 -35 -7 -60 -10 -25 -3 -100 -15 -168
-26 -68 -10 -155 -24 -195 -30 -72 -10 -93 -14 -287 -44 -58 -9 -116 -18 -130
-20 -57 -8 -497 -76 -523 -80 -15 -3 -89 -14 -165 -26 -75 -11 -148 -22 -162
-24 -14 -2 -41 -7 -60 -10 -97 -14 -368 -56 -390 -60 -14 -2 -128 -20 -255
-40 -126 -19 -241 -37 -255 -39 -14 -3 -45 -7 -70 -10 -84 -11 -165 -27 -192
-38 -47 -18 -72 -71 -72 -152 1 -39 3 -83 7 -99 3 -15 2 -25 -2 -23 -4 3 -8
-1 -8 -9 0 -8 5 -11 10 -8 6 3 8 -9 5 -31 -2 -20 0 -36 5 -36 5 0 7 -6 4 -12
-2 -7 0 -25 4 -41 5 -19 4 -25 -3 -21 -7 5 -8 2 -2 -7 10 -16 12 -27 18 -92 2
-27 7 -51 10 -54 3 -4 0 -13 -7 -21 -10 -13 -9 -14 1 -8 11 6 13 0 12 -30 -2
-22 1 -47 5 -56 4 -10 5 -24 2 -32 -3 -7 -2 -17 3 -22 4 -5 10 -36 14 -69 5
-56 8 -78 21 -157 3 -18 8 -53 11 -78 8 -77 12 -104 19 -140 3 -19 8 -53 10
-75 2 -22 6 -53 9 -70 3 -16 7 -51 9 -76 2 -25 7 -51 11 -57 4 -7 1 -12 -6
-12 -8 0 -9 -3 -3 -8 12 -8 18 -41 19 -99 1 -22 4 -40 7 -38 3 2 10 -37 17
-88 8 -66 8 -95 0 -104 -9 -11 -7 -12 8 -6 17 6 18 5 4 -12 -8 -10 -10 -16 -3
-12 8 5 14 -16 20 -70 4 -43 8 -86 7 -95 0 -10 2 -18 6 -18 3 0 6 -8 6 -17 1
-33 15 -127 19 -132 3 -2 -1 -11 -8 -19 -6 -9 -7 -13 -1 -9 10 6 34 -124 40
-213 1 -19 4 -42 7 -50 3 -8 8 -37 12 -65 7 -67 12 -101 21 -155 4 -25 8 -62
8 -82 1 -21 4 -38 8 -38 5 0 7 -3 6 -7 -2 -7 4 -55 17 -143 2 -8 6 -37 10 -65
4 -27 9 -52 11 -54 2 -2 -3 -12 -12 -22 -12 -13 -12 -19 -3 -25 7 -4 10 -3 5
4 -3 6 -1 14 5 18 8 5 10 -5 7 -34 -2 -22 0 -38 4 -36 5 3 8 -4 8 -15 0 -12
-5 -21 -12 -21 -6 0 -3 -7 8 -15 14 -11 15 -14 4 -15 -13 0 -13 -2 -1 -9 8 -5
11 -16 8 -25 -4 -9 -1 -16 5 -16 6 0 5 -6 -3 -17 -10 -11 -10 -14 -1 -9 12 7
14 -7 15 -84 0 -14 5 -28 11 -32 6 -4 5 -13 -5 -24 -9 -11 -9 -15 -1 -10 11 7
16 -10 15 -51 -1 -7 3 -10 8 -7 13 8 11 -10 -3 -25 -11 -10 -9 -11 6 -5 16 6
18 4 12 -11 -4 -11 -4 -16 0 -13 3 4 13 0 22 -8 12 -12 12 -18 3 -24 -10 -5
-9 -9 4 -14 9 -3 13 -10 10 -16 -3 -5 -1 -10 4 -10 14 0 14 13 -1 28 -9 9 -9
12 0 12 7 0 12 -4 12 -9 0 -5 9 -13 20 -16 11 -3 20 -11 20 -17 0 -6 -7 -5
-17 3 -15 11 -16 11 -6 0 6 -7 9 -19 7 -26 -3 -7 0 -16 7 -21 8 -4 10 -3 5 5
-4 6 -2 19 5 27 10 13 15 12 37 -2 13 -9 21 -11 17 -4 -6 9 -3 10 10 2 11 -5
30 -6 47 -2 35 11 46 -5 21 -32 -18 -21 -18 -21 4 -7 13 8 23 19 23 26 0 11
13 15 36 12 4 0 11 5 15 13 7 11 9 11 9 -1 0 -9 4 -10 13 -4 6 5 26 10 42 12
58 4 70 6 77 16 5 6 8 5 8 -4 0 -11 3 -11 15 -1 8 7 15 9 15 6 0 -4 8 -2 18 3
12 6 23 5 36 -5 10 -7 24 -11 29 -7 6 4 8 0 4 -11 -4 -10 -3 -15 3 -11 6 3 8
18 5 33 l-6 27 16 -28 c11 -19 20 -25 28 -20 7 5 22 8 34 7 12 0 20 2 17 7 -2
4 -10 6 -18 3 -7 -3 -13 2 -13 11 0 9 6 14 14 11 7 -3 13 -1 13 4 0 13 37 7
51 -7 6 -6 18 -9 25 -6 21 8 17 22 -6 18 -11 -2 -20 1 -20 7 0 5 7 8 15 5 8
-4 17 -2 21 4 4 7 10 7 18 0 9 -7 16 -7 24 1 8 8 15 8 27 -2 12 -10 13 -15 3
-21 -7 -4 -9 -11 -6 -15 4 -3 19 8 34 25 15 18 33 30 40 27 8 -3 14 -1 14 3 0
5 8 8 18 6 9 -1 23 3 31 9 11 8 13 8 7 -1 -4 -7 -2 -13 3 -13 6 0 11 4 11 9 0
6 8 10 18 10 35 1 67 7 81 15 10 6 12 5 7 -2 -9 -16 7 -15 22 0 9 9 12 9 12
-2 0 -10 4 -10 18 2 9 9 27 14 39 12 12 -2 25 1 28 6 11 18 26 0 16 -19 -7
-13 -6 -18 4 -18 8 0 12 4 10 8 -3 4 -3 13 0 21 6 16 45 22 45 7 0 -5 -3 -8
-7 -8 -25 4 -36 -2 -25 -13 8 -8 15 -8 24 -1 17 13 48 13 48 0 0 -6 2 -8 5 -5
3 3 2 13 -1 22 -5 12 -9 14 -14 6 -5 -8 -9 -8 -13 3 -4 11 2 14 24 12 16 -1
29 2 29 8 0 6 6 3 12 -6 10 -13 17 -14 28 -6 13 9 12 10 -3 5 -10 -3 -15 -2
-12 3 6 11 45 10 45 -1 0 -4 -8 -12 -17 -17 -10 -6 -13 -11 -6 -11 6 0 15 4
18 10 10 16 25 12 26 -7 0 -10 3 -13 5 -6 3 7 1 21 -5 32 -9 16 -8 19 7 16 9
-1 22 1 27 6 7 5 11 -6 12 -34 2 -112 33 -214 81 -262 19 -19 39 -35 44 -35 4
0 8 -8 8 -17 0 -15 2 -16 10 -3 8 12 10 12 10 1 0 -8 3 -11 7 -8 3 4 18 -3 31
-15 14 -13 22 -17 18 -10 -8 13 9 17 18 4 2 -4 19 -9 38 -10 19 -1 38 -10 46
-21 13 -20 42 -18 42 1 0 7 -5 6 -14 -1 -10 -9 -15 -8 -19 3 -8 21 46 16 55
-4 6 -13 7 -13 7 1 1 20 58 20 72 -1 9 -12 10 -12 5 3 -4 12 -2 17 6 15 7 -3
13 -11 13 -18 0 -7 7 -15 15 -17 12 -4 12 -3 2 5 -8 5 -14 13 -14 17 0 14 26
25 45 19 10 -3 23 -1 30 4 7 5 30 12 53 14 23 3 46 8 52 11 5 4 12 1 15 -7 3
-8 -1 -17 -9 -20 -16 -6 -19 -26 -3 -26 5 0 8 4 5 9 -4 5 0 11 6 13 7 3 13 12
13 21 0 9 5 17 10 18 6 0 15 4 20 8 6 4 18 11 29 15 14 5 17 3 12 -11 -4 -12
1 -9 13 6 12 16 24 22 35 18 9 -4 15 -3 12 2 -7 11 22 23 35 15 5 -3 9 0 9 7
0 7 3 10 6 6 4 -3 13 1 21 9 19 19 30 10 13 -11 -7 -9 -11 -18 -8 -20 3 -3 11
7 19 23 18 34 28 42 47 34 9 -3 13 -1 9 5 -4 6 0 13 8 17 17 6 30 -10 15 -17
-6 -3 -5 -4 2 -3 7 2 12 10 10 19 -2 11 3 14 18 10 11 -3 17 -9 15 -14 -6 -10
34 -33 43 -25 3 3 0 6 -7 6 -7 0 -9 4 -6 10 4 6 -1 7 -11 3 -12 -4 -15 -3 -10
5 4 7 0 15 -10 19 -13 5 -7 11 27 29 24 12 47 20 52 17 4 -2 7 3 7 13 0 14 3
14 15 4 13 -11 14 -10 9 5 -6 14 -4 16 7 9 8 -4 23 -10 34 -11 16 -2 17 -1 5
6 -8 5 -18 7 -22 5 -14 -9 -9 13 6 26 21 17 60 8 68 -15 6 -17 7 -16 5 5 -1
14 -8 26 -14 26 -7 1 -16 2 -19 3 -13 2 45 41 61 41 10 0 13 5 9 12 -5 8 -2 9
9 5 9 -3 16 -3 14 1 -2 8 147 162 157 162 3 0 6 -5 6 -11 0 -5 -4 -7 -10 -4
-6 3 -7 -1 -3 -10 8 -23 25 3 17 28 -6 20 12 47 32 47 7 0 11 -6 8 -14 -3 -8
3 -19 14 -25 21 -11 25 0 9 26 -4 6 -3 14 3 18 13 8 13 25 -1 25 -5 0 -7 -5
-3 -12 5 -7 3 -8 -6 -3 -9 5 -11 4 -6 -3 5 -8 1 -10 -10 -5 -11 4 -13 8 -6 11
7 2 9 9 5 15 -3 7 -2 9 2 4 5 -4 20 3 34 15 14 13 20 16 14 8 -21 -23 -15 -35
7 -15 21 19 33 23 80 28 14 2 30 5 35 8 6 3 22 5 38 4 15 -1 27 1 27 5 0 4 15
6 33 5 17 -1 37 1 42 4 15 8 55 9 50 0 -8 -11 26 -20 39 -10 7 6 18 6 25 1 8
-4 20 -6 28 -3 25 10 13 18 -26 18 -22 0 -37 -3 -35 -7 3 -5 0 -8 -5 -8 -6 0
-11 7 -11 15 0 11 7 14 27 11 14 -3 31 -2 37 2 6 3 25 7 41 8 17 1 31 3 33 4
1 1 16 4 32 5 17 1 31 3 33 5 9 7 57 9 57 1 0 -5 -10 -8 -23 -7 -17 2 -23 -2
-22 -15 1 -10 4 -21 8 -24 4 -3 5 -2 2 2 -3 3 0 12 6 20 10 11 15 11 27 1 11
-9 13 -9 9 -1 -9 15 22 46 39 39 7 -3 16 0 20 5 3 6 12 2 21 -10 8 -12 19 -19
24 -16 5 4 9 0 9 -7 0 -10 2 -10 8 0 5 7 18 14 30 17 12 2 26 6 31 10 6 3 14
-3 20 -12 10 -17 10 -17 11 0 0 9 -3 17 -7 18 -5 0 -16 2 -25 4 -10 2 -18 0
-18 -5 0 -5 -11 -7 -25 -5 -14 1 -28 -2 -31 -7 -3 -4 -10 -6 -15 -2 -5 3 -7
10 -3 15 3 5 10 7 15 4 5 -4 9 -1 9 6 0 8 4 8 15 -1 9 -7 15 -8 15 -2 0 6 8 9
18 7 9 -1 22 0 27 3 15 10 55 10 61 1 2 -4 -4 -6 -15 -4 -14 3 -18 -1 -14 -12
5 -12 7 -12 14 -1 8 13 13 3 9 -17 -1 -5 2 -7 6 -3 4 4 13 3 21 -4 11 -8 12
-7 7 6 -3 9 -9 16 -13 16 -4 0 -7 8 -8 18 -1 14 7 18 40 20 51 2 79 6 92 13 6
3 19 5 30 5 11 -1 24 4 28 9 5 6 6 1 3 -11 -4 -11 1 -29 10 -40 15 -18 15 -18
5 3 -15 30 -14 32 14 28 20 -2 23 1 15 11 -9 10 -7 11 9 7 11 -3 19 -10 18
-16 -1 -6 7 -12 18 -14 15 -2 16 -1 5 5 -8 4 -16 15 -18 24 -4 22 2 23 21 3
13 -13 16 -13 21 1 3 8 2 12 -3 9 -5 -3 -13 0 -17 7 -4 7 -4 10 1 6 4 -4 20
-1 36 8 16 8 31 13 34 12 2 -2 12 7 20 20 9 12 20 20 24 18 4 -3 15 8 25 25
10 16 22 26 28 23 7 -4 8 -2 4 5 -4 7 2 15 16 20 18 8 19 10 5 10 -10 1 -16 5
-13 9 13 21 23 128 15 151 -8 19 -5 28 13 45 12 12 26 20 30 19 4 -2 7 5 7 15
0 37 27 123 36 115 5 -4 3 0 -4 10 -9 11 -10 17 -2 17 6 0 11 5 11 11 0 5 -4
8 -9 5 -11 -7 -9 13 2 32 5 6 4 12 -1 12 -5 0 -10 15 -11 33 -3 46 -9 92 -11
92 -2 0 -4 9 -5 21 -1 11 -8 44 -15 74 -7 29 -14 65 -16 79 -1 14 -10 55 -19
91 -18 74 -25 109 -29 161 -2 20 -6 41 -9 45 -11 20 -38 175 -31 185 4 7 3 9
-4 5 -6 -4 -11 1 -11 11 0 10 -5 41 -11 68 -6 28 -12 61 -15 75 -2 14 -7 36
-10 50 -4 14 -8 40 -9 57 0 18 -5 33 -10 33 -5 0 -6 3 -3 6 3 4 2 15 -4 25 -7
14 -6 19 3 19 9 0 10 2 1 8 -6 4 -13 21 -16 37 -3 17 -8 39 -10 50 -3 11 -10
49 -17 85 -6 36 -15 81 -20 100 -9 34 -19 84 -24 125 -2 11 -8 38 -14 60 -10
38 -21 95 -26 141 -1 11 -5 24 -8 30 -3 5 -4 18 -2 29 1 11 -2 23 -9 27 -9 6
-8 8 3 8 13 0 13 1 0 10 -13 8 -13 13 -2 31 9 13 9 19 2 14 -6 -4 0 11 14 34
14 22 26 45 26 50 0 5 7 14 15 21 8 6 14 15 13 18 -3 14 36 81 44 76 4 -3 5 2
2 10 -3 9 -1 16 6 16 6 0 8 4 5 10 -3 5 4 28 15 50 11 22 36 86 54 143 78 237
71 405 -18 442 -39 17 -70 11 -113 -22 -38 -28 -122 -116 -166 -173 -33 -42
-43 -48 -44 -27 -1 6 -8 45 -17 85 -9 41 -13 78 -10 84 4 6 2 13 -4 17 -6 4
-12 22 -13 41 -2 19 -5 40 -8 45 -6 11 -7 13 -16 60 -16 79 -84 174 -147 206
-51 26 -120 37 -178 28z m-545 -3949 c3 -5 1 -10 -4 -10 -6 0 -11 5 -11 10 0
6 2 10 4 10 3 0 8 -4 11 -10z m-2165 -258 c0 -13 -12 -22 -22 -16 -10 6 -1 24
13 24 5 0 9 -4 9 -8z m-226 -41 c3 -5 0 -14 -8 -20 -10 -9 -15 -8 -19 3 -9 22
15 37 27 17z"/>
<path d="M4733 3549 c-2 -23 3 -25 10 -4 4 8 3 16 -1 19 -4 3 -9 -4 -9 -15z"/>
<path d="M4696 3473 c-6 -14 -5 -15 5 -6 7 7 10 15 7 18 -3 3 -9 -2 -12 -12z"/>
<path d="M4915 1099 c-4 -6 -5 -12 -2 -15 2 -3 7 2 10 11 7 17 1 20 -8 4z"/>
<path d="M4860 1060 c-6 -11 -15 -18 -19 -15 -5 2 -14 -2 -20 -9 -9 -10 -9
-16 -1 -21 6 -4 14 -4 17 -1 4 3 1 6 -6 6 -7 0 -10 4 -6 10 3 5 12 7 20 4 8
-4 12 -11 8 -17 -3 -6 -1 -7 6 -3 6 4 9 11 6 16 -3 5 -1 19 5 30 6 11 8 20 6
20 -3 0 -10 -9 -16 -20z"/>
<path d="M4791 991 c-9 -17 -8 -18 11 -13 13 3 17 7 10 10 -7 2 -10 8 -6 13 3
5 3 9 0 9 -3 0 -10 -9 -15 -19z"/>
<path d="M4610 981 c0 -7 -6 -11 -15 -8 -8 4 -17 2 -20 -3 -3 -5 -14 -7 -25
-5 -11 2 -20 0 -20 -6 0 -5 -7 -9 -15 -9 -8 0 -15 5 -15 12 0 6 -2 9 -5 6 -3
-3 -3 -12 1 -21 5 -15 9 -15 35 -1 16 8 29 11 29 7 0 -4 5 -2 12 5 8 8 17 8
30 1 25 -13 33 -6 19 18 -7 11 -11 13 -11 4z"/>
<path d="M4579 948 c-6 -21 -5 -37 2 -32 5 3 7 9 4 14 -3 4 1 11 7 13 10 4 10
6 1 6 -7 1 -13 0 -14 -1z"/>
<path d="M4243 923 c-7 -2 -13 -9 -13 -14 0 -6 4 -8 9 -5 5 4 11 0 14 -6 3 -7
4 -3 4 10 -1 12 -1 22 -2 21 0 0 -6 -3 -12 -6z"/>
<path d="M4270 919 c0 -5 5 -7 10 -4 6 3 10 8 10 11 0 2 -4 4 -10 4 -5 0 -10
-5 -10 -11z"/>
<path d="M4086 901 c-4 -6 -14 -8 -24 -5 -14 5 -14 4 -3 -4 8 -6 21 -8 29 -4
9 3 13 1 9 -5 -3 -5 0 -10 8 -10 12 0 12 3 3 16 -7 9 -13 17 -14 19 -1 2 -5
-1 -8 -7z"/>
<path d="M4122 897 c10 -8 15 -17 11 -20 -3 -4 -1 -7 5 -7 24 0 8 33 -18 38
-12 2 -11 -1 2 -11z"/>
<path d="M4293 895 c0 -8 4 -12 9 -9 5 3 6 10 3 15 -9 13 -12 11 -12 -6z"/>
<path d="M4358 903 c7 -3 16 -2 19 1 4 3 -2 6 -13 5 -11 0 -14 -3 -6 -6z"/>
<path d="M4450 899 c0 -5 5 -7 10 -4 6 3 10 8 10 11 0 2 -4 4 -10 4 -5 0 -10
-5 -10 -11z"/>
<path d="M4271 884 c0 -11 3 -14 6 -6 3 7 2 16 -1 19 -3 4 -6 -2 -5 -13z"/>
<path d="M4190 880 c0 -5 5 -10 11 -10 5 0 7 5 4 10 -3 6 -8 10 -11 10 -2 0
-4 -4 -4 -10z"/>
<path d="M3907 854 c18 -28 24 -31 17 -6 -5 14 -3 14 10 -2 9 -11 16 -15 16
-9 0 13 -27 36 -46 39 -10 2 -10 -3 3 -22z"/>
<path d="M3864 862 c3 -6 1 -12 -6 -14 -9 -3 -9 -6 0 -12 7 -4 12 -2 12 3 0 6
5 11 11 11 5 0 7 -5 3 -12 -4 -7 -3 -8 4 -4 16 10 15 14 -9 27 -13 6 -19 7
-15 1z"/>
<path d="M3746 852 c-3 -2 -2 -10 1 -18 4 -12 7 -12 18 2 8 12 14 14 19 6 4
-7 2 -12 -5 -12 -7 0 -9 -3 -6 -7 4 -3 17 2 29 13 21 19 21 19 14 0 -5 -16 -4
-17 9 -6 9 7 13 15 10 18 -6 6 -83 10 -89 4z"/>
<path d="M3971 851 c-8 -5 -9 -11 -3 -15 5 -3 12 1 16 9 6 17 6 18 -13 6z"/>
<path d="M4075 850 c-4 -6 -11 -7 -17 -4 -7 4 -8 2 -4 -5 6 -9 11 -9 22 0 14
11 18 19 10 19 -3 0 -8 -5 -11 -10z"/>
<path d="M3700 844 c0 -5 -12 -10 -26 -10 -35 1 -75 -47 -55 -67 7 -6 12 -7
11 -2 -5 26 2 41 20 42 11 1 18 -2 15 -7 -3 -6 1 -7 10 -3 13 4 14 8 4 14 -8
4 -10 11 -6 15 4 4 12 3 18 -3 15 -15 39 -5 38 16 0 12 -2 12 -6 2 -5 -11 -7
-11 -14 0 -5 8 -9 9 -9 3z"/>
<path d="M3836 822 c-3 -4 4 -9 15 -9 23 -2 25 3 4 10 -8 4 -16 3 -19 -1z"/>
<path d="M3735 800 c3 -5 8 -10 11 -10 2 0 4 5 4 10 0 6 -5 10 -11 10 -5 0 -7
-4 -4 -10z"/>
<path d="M3679 773 c-13 -16 -12 -17 4 -4 9 7 17 15 17 17 0 8 -8 3 -21 -13z"/>
<path d="M3547 764 c-3 -4 -2 -14 3 -24 5 -10 7 -20 5 -24 -3 -3 0 -2 7 3 8 8
8 14 0 24 -7 8 -9 17 -5 20 3 4 4 7 1 7 -2 0 -8 -3 -11 -6z"/>
<path d="M3570 699 c0 -5 5 -7 10 -4 6 3 10 8 10 11 0 2 -4 4 -10 4 -5 0 -10
-5 -10 -11z"/>
<path d="M3492 684 c-7 -8 -8 -14 -3 -14 10 0 25 19 20 25 -2 1 -10 -3 -17
-11z"/>
<path d="M3535 679 c-11 -16 -1 -19 13 -3 7 8 8 14 3 14 -5 0 -13 -5 -16 -11z"/>
<path d="M3435 640 c-5 -8 -4 -11 3 -6 5 3 12 1 14 -6 2 -6 12 -12 21 -14 9
-1 14 2 11 8 -3 5 -8 7 -12 4 -3 -3 -10 2 -17 11 -9 13 -14 13 -20 3z"/>
<path d="M3421 603 c-1 -13 -6 -22 -13 -20 -6 1 -14 -6 -16 -15 -2 -10 1 -18
7 -18 6 0 7 7 4 17 -4 11 -3 14 5 9 14 -8 27 17 19 36 -3 7 -6 3 -6 -9z"/>
<path d="M2026 578 c3 -5 10 -6 15 -3 13 9 11 12 -6 12 -8 0 -12 -4 -9 -9z"/>
<path d="M3451 564 c0 -11 3 -14 6 -6 3 7 2 16 -1 19 -3 4 -6 -2 -5 -13z"/>
<path d="M1907 559 c6 -6 9 -19 6 -28 -4 -14 -3 -14 6 -1 15 21 14 27 -6 35
-14 5 -15 3 -6 -6z"/>
<path d="M1764 539 c-16 -18 -20 -19 -30 -5 -10 14 -13 14 -23 2 -9 -11 -9
-16 0 -22 8 -5 9 -3 4 6 -5 8 -3 11 6 8 8 -3 13 -12 11 -22 -2 -9 2 -16 8 -16
5 0 9 6 8 13 -2 6 4 11 12 9 8 -2 12 0 7 4 -4 4 0 16 10 26 9 10 14 18 11 18
-3 0 -13 -9 -24 -21z"/>
<path d="M3363 543 c-7 -3 -13 -9 -13 -15 0 -6 7 -4 17 3 15 12 16 12 10 -3
-3 -10 -2 -18 3 -18 12 0 13 27 3 33 -5 2 -14 2 -20 0z"/>
<path d="M3305 531 c-9 -15 15 -25 28 -12 9 9 7 10 -7 5 -13 -5 -17 -4 -12 4
4 7 5 12 2 12 -3 0 -7 -4 -11 -9z"/>
<path d="M3416 527 c3 -10 9 -15 12 -12 3 3 0 11 -7 18 -10 9 -11 8 -5 -6z"/>
<path d="M1595 519 c-4 -6 -14 -8 -23 -4 -9 3 -13 3 -9 -1 4 -5 -3 -14 -15
-21 l-23 -14 25 7 c14 4 35 8 47 8 15 0 19 3 13 11 -6 7 -7 15 -3 18 3 4 4 7
0 7 -3 0 -9 -5 -12 -11z"/>
<path d="M1627 512 c1 -8 3 -16 3 -18 0 -2 4 -4 9 -4 14 0 21 29 9 36 -7 4 -8
3 -4 -4 4 -7 3 -12 -3 -12 -5 0 -11 3 -14 8 -2 4 -2 1 0 -6z"/>
<path d="M1673 523 c4 -3 1 -13 -6 -22 -11 -14 -10 -14 6 -2 16 12 22 9 18
-12 -1 -5 3 -6 9 -2 11 7 -9 45 -24 45 -5 0 -6 -3 -3 -7z"/>
<path d="M1506 499 c2 -5 -7 -7 -22 -6 -15 1 -29 -4 -32 -11 -5 -17 46 -8 65
11 12 12 12 14 -1 14 -8 0 -13 -4 -10 -8z"/>
<path d="M1786 498 c3 -4 11 -5 19 -1 21 7 19 12 -4 10 -11 0 -18 -5 -15 -9z"/>
<path d="M3339 508 c0 -2 -2 -13 -3 -24 -2 -19 0 -20 16 -10 16 9 16 12 3 14
-8 2 -13 8 -10 13 4 5 4 9 1 9 -3 0 -6 -1 -7 -2z"/>
<path d="M1334 483 c4 -7 15 -17 24 -22 14 -8 18 -5 19 12 2 16 0 18 -7 8 -7
-13 -11 -13 -26 0 -11 8 -15 9 -10 2z"/>
<path d="M3250 480 c0 -5 5 -10 10 -10 6 0 10 5 10 10 0 6 -4 10 -10 10 -5 0
-10 -4 -10 -10z"/>
<path d="M1250 461 c0 -3 4 -12 9 -19 6 -11 9 -9 13 5 3 12 0 20 -8 20 -8 0
-14 -3 -14 -6z"/>
<path d="M1426 462 c-3 -5 1 -9 9 -9 8 0 12 4 9 9 -3 4 -7 8 -9 8 -2 0 -6 -4
-9 -8z"/>
<path d="M1500 465 c0 -7 30 -13 34 -7 3 4 -4 9 -15 9 -10 1 -19 0 -19 -2z"/>
<path d="M3275 460 c-3 -5 -1 -10 4 -10 6 0 11 5 11 10 0 6 -2 10 -4 10 -3 0
-8 -4 -11 -10z"/>
<path d="M1090 441 c0 -7 -4 -9 -10 -6 -6 4 -7 -1 -3 -11 6 -15 7 -15 15 1 6
9 7 19 4 22 -3 4 -6 1 -6 -6z"/>
<path d="M1290 430 c6 -11 13 -20 16 -20 2 0 0 9 -6 20 -6 11 -13 20 -16 20
-2 0 0 -9 6 -20z"/>
<path d="M1335 440 c3 -5 8 -10 11 -10 2 0 4 5 4 10 0 6 -5 10 -11 10 -5 0 -7
-4 -4 -10z"/>
<path d="M3297 435 c-4 -8 -3 -16 1 -19 4 -3 9 4 9 15 2 23 -3 25 -10 4z"/>
<path d="M1045 430 c-4 -6 -11 -7 -17 -4 -7 4 -8 2 -4 -4 10 -16 23 -15 30 3
6 17 0 20 -9 5z"/>
<path d="M990 421 c0 -5 7 -11 14 -14 10 -4 13 -1 9 9 -6 15 -23 19 -23 5z"/>
<path d="M3190 420 c0 -5 5 -10 10 -10 6 0 10 5 10 10 0 6 -4 10 -10 10 -5 0
-10 -4 -10 -10z"/>
<path d="M686 407 c3 -10 9 -15 12 -12 3 3 0 11 -7 18 -10 9 -11 8 -5 -6z"/>
<path d="M904 409 c-3 -5 -9 -7 -14 -4 -4 3 -11 -2 -14 -11 -8 -22 -8 -24 6
-24 6 0 8 3 5 7 -7 6 21 32 36 33 4 0 7 -8 8 -17 0 -11 3 -13 6 -5 2 6 10 9
15 6 7 -4 8 -2 4 4 -4 7 -2 12 3 12 6 0 11 -4 11 -10 0 -5 5 -10 12 -10 9 0 9
3 0 12 -15 15 -70 19 -78 7z"/>
<path d="M3230 410 c-9 -6 -10 -10 -3 -10 6 0 15 5 18 10 8 12 4 12 -15 0z"/>
<path d="M786 391 c-10 -11 -16 -26 -13 -33 4 -10 6 -10 6 1 1 8 8 23 18 33 9
10 14 18 11 18 -3 0 -13 -9 -22 -19z"/>
<path d="M855 399 c-4 -6 -5 -12 -2 -15 2 -3 7 2 10 11 7 17 1 20 -8 4z"/>
<path d="M1108 403 c7 -3 16 -2 19 1 4 3 -2 6 -13 5 -11 0 -14 -3 -6 -6z"/>
<path d="M1180 406 c0 -2 8 -10 18 -17 15 -13 16 -12 3 4 -13 16 -21 21 -21
13z"/>
<path d="M3135 390 c-3 -6 1 -13 9 -16 9 -3 14 -9 11 -13 -2 -4 2 -8 10 -8 18
0 28 24 13 33 -7 4 -8 3 -4 -4 8 -14 4 -15 -18 -6 -9 3 -13 10 -10 15 3 5 3 9
0 9 -3 0 -8 -5 -11 -10z"/>
<path d="M700 380 c-8 -5 -10 -10 -5 -10 6 0 17 5 25 10 8 5 11 10 5 10 -5 0
-17 -5 -25 -10z"/>
<path d="M905 360 c-3 -6 1 -7 9 -4 18 7 21 14 7 14 -6 0 -13 -4 -16 -10z"/>
<path d="M3070 340 c0 -5 5 -10 10 -10 6 0 10 5 10 10 0 6 -4 10 -10 10 -5 0
-10 -4 -10 -10z"/>
<path d="M3030 330 c0 -5 9 -14 20 -20 11 -6 20 -9 20 -8 0 2 -9 11 -20 21
-11 9 -20 13 -20 7z"/>
<path d="M3001 313 c-5 -10 -12 -17 -16 -15 -3 1 -13 -4 -21 -13 -9 -8 -11
-15 -4 -15 6 0 13 7 16 15 4 8 10 13 15 10 4 -3 13 4 19 15 13 24 5 27 -9 3z"/>
<path d="M2890 285 c0 -8 29 -12 39 -5 9 5 4 8 -13 8 -14 0 -26 -2 -26 -3z"/>
<path d="M3030 280 c0 -5 7 -7 15 -4 8 4 15 8 15 10 0 2 -7 4 -15 4 -8 0 -15
-4 -15 -10z"/>
<path d="M2853 253 c-3 -7 -9 -10 -14 -7 -5 3 -6 -3 -2 -12 4 -11 3 -15 -5
-10 -15 9 -26 -14 -13 -27 9 -9 11 -8 6 5 -5 13 -2 16 14 13 15 -3 18 0 14 12
-4 11 -2 14 5 9 7 -4 10 -2 7 6 -4 9 2 14 15 15 12 1 18 -2 14 -9 -4 -7 -2 -8
5 -4 6 4 9 11 6 16 -8 13 -47 8 -52 -7z"/>
<path d="M2932 265 c4 -4 0 -13 -9 -20 -13 -10 -14 -13 -2 -20 8 -5 11 -5 7 0
-4 4 0 13 9 20 13 10 14 13 2 20 -8 5 -11 5 -7 0z"/>
<path d="M2973 245 c0 -8 4 -12 9 -9 5 3 6 10 3 15 -9 13 -12 11 -12 -6z"/>
<path d="M2770 239 c-12 -8 -10 -9 7 -4 19 5 22 3 17 -12 -5 -14 -4 -15 4 -3
19 25 0 38 -28 19z"/>
<path d="M2220 231 c0 -7 -5 -9 -12 -5 -7 5 -8 3 -3 -5 5 -9 10 -10 18 -2 6 6
8 14 4 18 -4 3 -7 1 -7 -6z"/>
<path d="M2685 220 c-16 -7 -17 -9 -3 -9 9 -1 20 4 23 9 7 11 7 11 -20 0z"/>
<path d="M2622 200 c0 -14 2 -19 5 -12 2 6 2 18 0 25 -3 6 -5 1 -5 -13z"/>
<path d="M2652 200 c0 -14 2 -19 5 -12 2 6 2 18 0 25 -3 6 -5 1 -5 -13z"/>
<path d="M2230 200 c0 -6 4 -9 9 -6 5 4 12 1 14 -4 3 -6 4 -5 3 2 -3 15 -26
23 -26 8z"/>
<path d="M2754 202 c3 -6 0 -12 -6 -15 -7 -2 -1 -4 14 -3 34 1 34 2 7 17 -13
6 -19 7 -15 1z"/>
<path d="M2340 193 c0 -6 -8 -9 -19 -6 -26 7 -35 -12 -13 -28 16 -13 16 -13 2
5 -14 18 -13 19 7 14 22 -6 41 7 29 19 -3 4 -6 2 -6 -4z"/>
<path d="M2455 191 c-7 -12 12 -24 25 -16 6 3 10 12 9 18 0 9 -2 9 -6 0 -2 -7
-9 -13 -14 -13 -6 0 -7 5 -4 10 3 6 4 10 1 10 -3 0 -7 -4 -11 -9z"/>
<path d="M2579 183 c-1 -5 -1 -11 0 -15 0 -5 -3 -8 -7 -8 -5 0 -17 -7 -28 -16
-18 -14 -18 -15 4 -4 12 6 27 8 32 5 5 -3 7 4 5 16 -3 15 0 19 10 15 8 -3 15
-1 15 4 0 12 -29 14 -31 3z"/>
<path d="M2670 180 c0 -5 7 -7 15 -4 8 4 15 8 15 10 0 2 -7 4 -15 4 -8 0 -15
-4 -15 -10z"/>
<path d="M2436 153 c-6 -14 -5 -15 5 -6 7 7 10 15 7 18 -3 3 -9 -2 -12 -12z"/>
<path d="M2500 160 c18 -12 30 -13 30 -2 0 4 -10 9 -22 9 -18 2 -20 0 -8 -7z"/>
<path d="M2679 153 c-12 -16 -12 -17 2 -6 9 7 19 10 22 6 4 -3 7 -1 7 5 0 17
-16 15 -31 -5z"/>
<path d="M2377 153 c-3 -5 6 -9 20 -10 19 -1 22 1 12 8 -17 11 -26 11 -32 2z"/>
<path d="M2477 143 c-10 -10 -8 -23 4 -23 5 0 7 5 3 12 -5 8 -2 9 10 5 10 -4
15 -3 11 3 -7 12 -19 13 -28 3z"/>
<path d="M2620 140 c-9 -6 -10 -10 -3 -10 6 0 15 5 18 10 8 12 4 12 -15 0z"/>
<path d="M2350 119 c0 -5 5 -7 10 -4 6 3 10 8 10 11 0 2 -4 4 -10 4 -5 0 -10
-5 -10 -11z"/>
<path d="M2427 119 c7 -7 15 -10 18 -7 3 3 -2 9 -12 12 -14 6 -15 5 -6 -5z"/>
</g>
</svg>
